# xmcd CD database file
#
# Track frame offsets:
#	150
#	15775
#	33667
#	51785
#	70707
#	89415
#	106397
#	133215
#	151767
#	171725
#
# Disc length: 2571 seconds
#
# Revision: 3
# Processed by: cddbd v1.5.2PL0 Copyright (c) Steve Scherf et al.
# Submitted via: CDex 1.70beta3
#
DISCID=7f0a090a
DTITLE=中山美穂 - Dramatic Songs
DYEAR=1993
DGENRE=JPop
TTITLE0=「C」
TTITLE1=WAKU WAKUさせて
TTITLE2=派手!!!
TTITLE3=CATCH ME
TTITLE4=人魚姫 mermaid
TTITLE5=愛してるっていわない!
TTITLE6=遠い街のどこかで・・・
TTITLE7=世界中の誰よりきっと
TTITLE8=世界中の誰よりきっと PartⅡ
TTITLE9=You're My Only Shinin' Star
EXTD=YEAR: 1993
EXTT0=
EXTT1=
EXTT2=
EXTT3=
EXTT4=
EXTT5=
EXTT6=
EXTT7=
EXTT8=
EXTT9=
PLAYORDER=
